<?xml version="1.0" encoding="UTF-8"?>
<svg version="1.1" xmlns="http://www.w3.org/2000/svg" width="1536" height="1024">
<path d="M0 0 C8.40019935 6.75759515 13.5224958 15.82940018 18.74609375 25.05688477 C20.1697376 27.54323955 21.59877816 30.0264805 23.02734375 32.51000977 C23.37853775 33.12288849 23.72973175 33.73576721 24.09156799 34.36721802 C27.05509317 39.52297558 30.15562902 44.58741612 33.29052734 49.64086914 C37.16396408 55.91187133 40.91630896 62.25646189 44.68945312 68.58813477 C50.68439547 79.78881186 50.68439547 79.78881186 58.24609375 89.80688477 C58.64380981 89.03332642 58.64380981 89.03332642 59.04956055 88.24414062 C64.86937594 76.9554597 70.88309429 65.80784227 77.18066406 54.77856445 C82.07137041 46.18584502 86.76232577 37.49194791 91.40161133 28.76123047 C99.72962421 13.14943494 107.23362466 -0.31200477 124.49609375 -7.00561523 C139.22324744 -11.36153393 153.76630213 -9.27671561 167.078125 -2.11108398 C176.90422155 3.83788446 183.30893292 12.03149724 187.24609375 22.80688477 C188.13452849 26.50080994 188.39928504 29.98237131 188.46728516 33.77685547 C188.49045807 34.96032059 188.51363098 36.14378571 188.5375061 37.3631134 C188.56728043 39.27854195 188.56728043 39.27854195 188.59765625 41.23266602 C188.62084489 42.58050371 188.64423545 43.92833794 188.66781616 45.27616882 C188.71625608 48.11148005 188.76113057 50.94682153 188.80371094 53.78222656 C188.84696322 56.63976622 188.89537341 59.49713264 188.94921875 62.35449219 C189.27922666 79.88335639 189.16704718 97.28815121 188.24609375 114.80688477 C172.40609375 114.80688477 156.56609375 114.80688477 140.24609375 114.80688477 C137.52359375 107.75313477 137.52359375 107.75313477 134.74609375 100.55688477 C129.25090728 86.35529067 129.25090728 86.35529067 123.68359375 72.18188477 C123.37421875 71.39136719 123.06484375 70.60084961 122.74609375 69.78637695 C120.1988021 62.86506669 120.1988021 62.86506669 115.43359375 57.49438477 C112.47976451 56.56603843 110.33031175 56.42922542 107.24609375 56.80688477 C102.80417444 59.67034338 100.78305407 63.01153136 98.6796875 67.72094727 C98.36430023 68.39918045 98.04891296 69.07741364 97.72396851 69.77619934 C96.69831695 71.98936392 95.69102037 74.21037304 94.68359375 76.43188477 C93.97019629 77.9793959 93.25558398 79.52634754 92.53979492 81.07275391 C90.75542808 84.93484025 88.98517653 88.80319154 87.21984863 92.67401123 C85.32304273 96.82869859 83.40930873 100.97557524 81.49731445 105.12329102 C80.54387739 107.19163301 79.59187375 109.26063641 78.64135742 111.33032227 C73.00714024 123.56760606 67.12944392 135.68787085 61.24609375 147.80688477 C57.47772391 146.35349269 56.31659149 144.68303744 54.546875 141.10766602 C54.06395996 140.152229 53.58104492 139.19679199 53.08349609 138.21240234 C52.58027832 137.19170654 52.07706055 136.17101074 51.55859375 135.11938477 C47.3295145 126.75944082 42.91782368 118.63471861 37.98828125 110.67016602 C36.61592809 108.41470668 35.37159224 106.19131714 34.24609375 103.80688477 C33.58609375 103.80688477 32.92609375 103.80688477 32.24609375 103.80688477 C32.24609375 103.14688477 32.24609375 102.48688477 32.24609375 101.80688477 C24.10429923 99.5777729 24.10429923 99.5777729 16.24609375 101.80688477 C12.41228389 104.83357676 8.89839757 108.18294198 5.37109375 111.55688477 C-2.54723595 117.25808215 -11.35479336 117.22207296 -20.79736328 117.25317383 C-25.89122537 117.31386113 -25.89122537 117.31386113 -30.32421875 119.61938477 C-32.4235181 122.83142749 -32.29828681 125.06426844 -31.75390625 128.80688477 C-27.48253182 132.97098723 -22.43195993 132.70215123 -16.75390625 132.80688477 C-10.562189 132.63776707 -10.562189 132.63776707 -4.75390625 130.80688477 C-3.61953125 130.70375977 -2.48515625 130.60063477 -1.31640625 130.49438477 C8.39250674 129.33772726 16.90853493 124.64492663 25.24609375 119.80688477 C28.73021021 127.14253361 32.12677168 134.50886677 35.39453125 141.94360352 C35.9611959 143.2272791 36.52801063 144.51088845 37.0949707 145.79443359 C37.94686736 147.72309716 38.79593762 149.65273302 39.6355896 151.58676147 C44.45479812 164.22185578 44.45479812 164.22185578 53.17797852 174.04467773 C56.54752796 175.28653033 59.93324641 175.03455073 63.24609375 173.80688477 C66.96724239 170.48452363 69.20872318 167.44075138 71.26953125 162.91625977 C71.80803711 161.74828857 72.34654297 160.58031738 72.90136719 159.37695312 C73.47480712 158.10368604 74.0480436 156.83032732 74.62109375 155.55688477 C75.22982023 154.22644193 75.83954144 152.89645382 76.45019531 151.56689453 C78.06592462 148.04120294 79.66771962 144.5093682 81.26525879 140.97540283 C82.887057 137.38978561 84.51626238 133.80753573 86.14453125 130.22485352 C88.06071793 126.00750624 89.97590095 121.78971773 91.88647461 117.56982422 C96.86614549 106.58108742 101.99445462 95.66851018 107.24609375 84.80688477 C110.32284732 87.61591711 112.10782634 90.12178574 113.796875 93.92016602 C114.46831543 95.41169189 114.46831543 95.41169189 115.15332031 96.93334961 C115.84893066 98.51043701 115.84893066 98.51043701 116.55859375 100.11938477 C117.04424805 101.19140137 117.52990234 102.26341797 118.03027344 103.36791992 C120.17419459 108.10520217 122.28038466 112.85174479 124.2734375 117.65454102 C124.57016357 118.34700928 124.86688965 119.03947754 125.17260742 119.75292969 C125.94055139 121.55178095 126.68039428 123.36255695 127.41796875 125.17407227 C129.44098275 128.08755824 130.64893054 128.58977354 134.00717163 129.44088745 C138.74068292 130.21467605 143.52184279 130.04702694 148.3046875 130.00219727 C150.02112206 129.99795242 150.02112206 129.99795242 151.77223206 129.99362183 C155.40946118 129.98247054 159.04643966 129.9573749 162.68359375 129.93188477 C165.15689747 129.92184845 167.63020507 129.91272374 170.10351562 129.90454102 C176.15112648 129.88254773 182.1985922 129.8491204 188.24609375 129.80688477 C189.60174941 132.51819609 189.38074436 134.65112368 189.39135742 137.68676758 C189.4009272 139.54075165 189.4009272 139.54075165 189.41069031 141.43218994 C189.41222077 142.79146282 189.41333377 144.15073622 189.4140625 145.51000977 C189.41727832 146.90850864 189.42064264 148.30700719 189.42414856 149.70550537 C189.4301481 152.64783504 189.43198808 155.59013534 189.43139648 158.5324707 C189.43129587 162.26405336 189.44483852 165.99544137 189.46216869 169.7269783 C189.4734204 172.62360456 189.47531156 175.52018612 189.47478676 178.41683197 C189.47595138 179.78964649 189.48028558 181.16246277 189.48811913 182.53525543 C189.57245715 198.8699107 188.72853717 214.28731742 177.24609375 226.80688477 C166.99374473 236.66283365 155.66951132 240.16403573 141.66015625 240.02172852 C130.24078437 239.30311816 119.02102428 234.31631334 111.24609375 225.80688477 C99.20628293 209.74547739 100.09379104 193.32869345 100.18359375 174.11938477 C100.18861884 172.24243283 100.19317996 170.3654796 100.19726562 168.48852539 C100.20819117 163.92794589 100.22540018 159.36742997 100.24609375 154.80688477 C97.73676348 159.76056395 95.261048 164.72360167 92.9296875 169.76391602 C92.3718457 170.96757813 92.3718457 170.96757813 91.80273438 172.19555664 C91.04851834 173.82903325 90.29860337 175.46450181 89.55273438 177.10180664 C87.53668584 181.43192827 85.5940558 185.31735984 82.24609375 188.80688477 C81.58609375 188.80688477 80.92609375 188.80688477 80.24609375 188.80688477 C80.24609375 189.46688477 80.24609375 190.12688477 80.24609375 190.80688477 C72.27449599 197.1703294 63.65816844 199.22783443 53.62109375 198.68188477 C44.57118692 197.54903725 37.28659763 193.65198856 31.24609375 186.80688477 C28.31606651 182.62113156 25.78234262 178.23648804 23.24609375 173.80688477 C22.89225113 173.18898071 22.53840851 172.57107666 22.17384338 171.93444824 C21.11368058 170.08124909 20.05467199 168.2273957 18.99609375 166.37329102 C18.63257813 165.73685669 18.2690625 165.10042236 17.89453125 164.44470215 C17.01159331 162.89883466 16.12882528 161.35287013 15.24609375 159.80688477 C15.23151123 161.05187744 15.21692871 162.29687012 15.2019043 163.57958984 C15.14347497 168.24474317 15.0662485 172.90943611 14.98364258 177.57421875 C14.95060163 179.58455882 14.92250645 181.59498701 14.8996582 183.60546875 C14.70894671 199.94579164 14.06295271 215.23619851 2.4140625 227.85375977 C-8.31134137 237.51628578 -20.98473592 240.43363154 -35.078125 240.08813477 C-44.93433746 239.33399311 -52.70082355 236.50706678 -60.75390625 230.80688477 C-61.40230469 230.35442383 -62.05070312 229.90196289 -62.71875 229.43579102 C-71.63225099 222.5507454 -75.91662978 211.63538672 -77.75390625 200.80688477 C-77.85017094 198.50071888 -77.89301507 196.19208648 -77.90107727 193.88392639 C-77.90475396 193.19941184 -77.90843065 192.51489729 -77.91221875 191.80963987 C-77.9232068 189.52233684 -77.92709117 187.23507932 -77.9309082 184.94775391 C-77.93717677 183.30472674 -77.94382392 181.66170098 -77.95082092 180.01867676 C-77.97182509 174.62647481 -77.9822231 169.23427272 -77.9921875 163.84204102 C-77.99623707 161.98098677 -78.00035405 160.11993266 -78.00453758 158.25887871 C-78.02358492 149.50979481 -78.0378143 140.76071931 -78.04614955 132.01161867 C-78.05590653 121.93828913 -78.08218766 111.86518022 -78.12265044 101.79192835 C-78.15290365 93.99039758 -78.16762731 86.18892969 -78.17093056 78.38734144 C-78.17327145 73.73559131 -78.18210519 69.08407699 -78.20739174 64.43239021 C-78.23083774 60.04840272 -78.23484002 55.66480352 -78.22463036 51.28076935 C-78.2241388 49.68213794 -78.23034543 48.08348634 -78.2441864 46.48491478 C-78.37312214 30.69455158 -75.72532472 16.54537619 -64.65234375 4.52563477 C-47.30880231 -11.8986377 -19.43714222 -14.16219944 0 0 Z " fill="#00A5D0" transform="translate(375.75390625,373.193115234375)"/>
<path d="M0 0 C26 0 26 0 29 1 C30.2199707 3.17602539 30.2199707 3.17602539 31.42578125 6.09765625 C32.11631592 7.74302368 32.11631592 7.74302368 32.82080078 9.42163086 C33.31306152 10.62311768 33.80532227 11.82460449 34.3125 13.0625 C35.10029645 14.95070114 35.89214779 16.83716934 36.6842041 18.72358704 C37.24230896 20.05338773 37.79916639 21.38371255 38.3548584 22.71452332 C41.67981389 30.66512231 45.15463352 38.54958168 48.625 46.4375 C49.52690991 48.48904235 50.42841517 50.54075915 51.3289032 52.59292603 C52.11110641 54.375417 52.89461715 56.15733403 53.67822266 57.93920898 C54.83169534 60.61026311 55.93588054 63.29233697 57 66 C57.29656494 65.26064209 57.59312988 64.52128418 57.89868164 63.75952148 C67.78739393 39.15735457 67.78739393 39.15735457 73.1640625 27.984375 C77.47397091 18.83137363 81.14570929 9.345335 85 0 C94.24 0 103.48 0 113 0 C113.88695951 12.13778105 114.14821101 24.1730246 114.1328125 36.33984375 C114.13348783 38.24272168 114.13445976 40.14559953 114.13571167 42.04847717 C114.13717249 45.99741453 114.13508307 49.94632901 114.13037109 53.89526367 C114.12461562 58.96614065 114.12799924 64.03696537 114.13394356 69.10784054 C114.13754313 73.01872661 114.1364144 76.92960009 114.13381577 80.84048653 C114.13314784 82.71247934 114.13397024 84.58447328 114.13629532 86.45646477 C114.13881819 89.05295776 114.13498919 91.64936319 114.12939453 94.24584961 C114.13141876 95.02128113 114.13344299 95.79671265 114.13552856 96.59564209 C114.11427517 101.88572483 114.11427517 101.88572483 113 103 C111.36527118 103.08700342 109.72685945 103.10701063 108.08984375 103.09765625 C107.10048828 103.09443359 106.11113281 103.09121094 105.09179688 103.08789062 C104.05087891 103.07951172 103.00996094 103.07113281 101.9375 103.0625 C100.89271484 103.05798828 99.84792969 103.05347656 98.77148438 103.04882812 C96.1809334 103.03699913 93.59049441 103.02051689 91 103 C89.93279522 83.65975172 89.88787521 64.36136413 90 45 C86.87674862 49.68487707 84.83909812 54.8609119 82.5625 60 C82.03551514 61.18577637 81.50853027 62.37155273 80.96557617 63.59326172 C76.56706508 73.53941995 72.42914672 83.58225978 68.39086914 93.6796875 C67.95895264 94.75734375 67.52703613 95.835 67.08203125 96.9453125 C66.51319214 98.37641357 66.51319214 98.37641357 65.93286133 99.83642578 C65 102 65 102 64 103 C61.46950598 103.07313567 58.96695163 103.09247527 56.4375 103.0625 C55.37112305 103.05573242 55.37112305 103.05573242 54.28320312 103.04882812 C52.52209987 103.03700864 50.76103964 103.01907263 49 103 C48.54753906 101.93652344 48.09507812 100.87304688 47.62890625 99.77734375 C39.53395216 80.8019212 31.25530817 61.90603467 23 43 C23.00222061 43.73693588 23.00444122 44.47387177 23.00672913 45.23313904 C23.02673203 52.16412769 23.04197413 59.09511204 23.05181217 66.02612209 C23.05703995 69.58977422 23.06413569 73.15340257 23.07543945 76.71704102 C23.08834176 80.81006097 23.09322906 84.9030558 23.09765625 88.99609375 C23.10281754 90.28148544 23.10797882 91.56687714 23.11329651 92.89122009 C23.11340981 94.66294334 23.11340981 94.66294334 23.11352539 96.47045898 C23.115746 97.51636703 23.11796661 98.56227509 23.12025452 99.63987732 C23 102 23 102 22 103 C14.74 103 7.48 103 0 103 C0 69.01 0 35.02 0 0 Z M90 40 C91 43 91 43 91 43 Z " fill="#000000" transform="translate(615,441)"/>
<path d="M0 0 C0.24609566 1.83906746 0.24609566 1.83906746 0.24050903 4.11282349 C0.24325836 4.97381653 0.24600769 5.83480957 0.24884033 6.72189331 C0.2380545 8.14177048 0.2380545 8.14177048 0.22705078 9.59033203 C0.22734283 10.58548828 0.22763489 11.58064453 0.22793579 12.60595703 C0.2265386 15.90666316 0.21095904 19.20714563 0.1953125 22.5078125 C0.19158376 24.791818 0.18873613 27.0758251 0.18673706 29.35983276 C0.1790897 35.3801513 0.15943174 41.40037379 0.1373291 47.4206543 C0.1168944 53.5603709 0.10774043 59.70010297 0.09765625 65.83984375 C0.07618688 77.89327822 0.04099576 89.94661611 0 102 C-6.93 102 -13.86 102 -21 102 C-21.495 98.04 -21.495 98.04 -22 94 C-22.4846875 94.39832031 -22.969375 94.79664063 -23.46875 95.20703125 C-33.21906991 102.9135341 -41.90479945 104.05640123 -54 103 C-63.98349309 100.84239527 -71.23956537 96.0272475 -76.875 87.5625 C-82.80942455 77.50095292 -84.70928507 64.96214027 -81.84375 53.5 C-78.03875968 42.22595461 -72.35166206 34.14281572 -61.6875 28.5625 C-53.30640845 24.64429578 -41.6104971 24.47395702 -32.8125 27.3125 C-29.6568037 28.52721813 -26.88815607 30.25289503 -24 32 C-23.96241577 30.55379272 -23.96241577 30.55379272 -23.92407227 29.07836914 C-23.83014694 25.51312158 -23.72989061 21.94807567 -23.62768555 18.38305664 C-23.58428015 16.83785711 -23.54260929 15.29260786 -23.50268555 13.74731445 C-23.44511801 11.53060904 -23.38138576 9.3141552 -23.31640625 7.09765625 C-23.29133751 6.05545677 -23.29133751 6.05545677 -23.26576233 4.99220276 C-23.11387171 0.11387171 -23.11387171 0.11387171 -22 -1 C-18.70306781 -1.40755203 -15.37909484 -1.51630619 -12.0625 -1.6875 C-10.66354492 -1.77741211 -10.66354492 -1.77741211 -9.23632812 -1.86914062 C-8.34494141 -1.91619141 -7.45355469 -1.96324219 -6.53515625 -2.01171875 C-5.30357788 -2.08072388 -5.30357788 -2.08072388 -4.04711914 -2.15112305 C-2 -2 -2 -2 0 0 Z M-55.5 50.4375 C-59.46607982 57.21288636 -59.614316 63.2674193 -59 71 C-57.40948307 75.94827489 -54.55488707 79.45040912 -50 82 C-42.311863 84.71724775 -36.6619439 84.01311214 -29.25 80.8125 C-25.16405978 77.52104816 -23.42894086 73.62384754 -22.125 68.6875 C-21.87490667 61.30974673 -23.09328735 54.72449809 -28 49 C-36.47119071 41.7108359 -47.57510503 42.7107274 -55.5 50.4375 Z " fill="#000000" transform="translate(904,442)"/>
<path d="M0 0 C8.815932 6.0588896 13.76062828 14.36954765 15.8359375 24.74609375 C15.8359375 30.02609375 15.8359375 35.30609375 15.8359375 40.74609375 C-1.6540625 40.74609375 -19.1440625 40.74609375 -37.1640625 40.74609375 C-35.8440625 43.38609375 -34.5240625 46.02609375 -33.1640625 48.74609375 C-33.1640625 49.40609375 -33.1640625 50.06609375 -33.1640625 50.74609375 C-32.4421875 51.03484375 -31.7203125 51.32359375 -30.9765625 51.62109375 C-28.1640625 52.74609375 -28.1640625 52.74609375 -25.9765625 53.87109375 C-17.26928961 56.58002309 -9.00520447 54.26752186 -1.1640625 50.18359375 C0.95497602 48.89574893 0.95497602 48.89574893 1.8359375 46.74609375 C2.8259375 47.07609375 3.8159375 47.40609375 4.8359375 47.74609375 C4.8359375 48.40609375 4.8359375 49.06609375 4.8359375 49.74609375 C5.3515625 49.97296875 5.8671875 50.19984375 6.3984375 50.43359375 C9.75996877 52.24364905 12.76504894 54.48605779 15.8359375 56.74609375 C12.85083123 63.58633726 6.31023356 68.24387532 -0.4921875 70.96484375 C-14.30583984 75.00392338 -29.02696443 74.88028529 -42.1640625 68.74609375 C-51.74032109 62.84273769 -56.74632901 55.2160972 -59.66015625 44.4765625 C-61.92759547 32.19020581 -59.66173276 20.47619724 -52.875 10.03125 C-41.25049731 -5.49462688 -16.8024554 -9.73571874 0 0 Z M-34.1640625 16.74609375 C-37.09364099 20.55454579 -37.1640625 21.68992172 -37.1640625 26.74609375 C-26.9340625 26.74609375 -16.7040625 26.74609375 -6.1640625 26.74609375 C-7.03276122 19.63423686 -7.03276122 19.63423686 -11.1640625 14.74609375 C-17.89230761 10.43699295 -28.51565303 11.24632663 -34.1640625 16.74609375 Z " fill="#000000" transform="translate(798.1640625,472.25390625)"/>
<path d="M0 0 C5.2972083 3.95884782 9.18350147 10.03791811 10.2724762 16.60525513 C10.97848521 22.72218505 11.09485384 28.75683501 11.0625 34.91015625 C11.06108505 35.94063583 11.0596701 36.97111542 11.05821228 38.03282166 C11.05265822 41.29274519 11.04011445 44.55259757 11.02734375 47.8125 C11.02232281 50.03580629 11.01776094 52.25911367 11.01367188 54.48242188 C11.00270388 59.90497493 10.98547137 65.32747544 10.96484375 70.75 C4.69484375 70.75 -1.57515625 70.75 -8.03515625 70.75 C-8.03515625 69.1 -8.03515625 67.45 -8.03515625 65.75 C-9.02515625 65.255 -9.02515625 65.255 -10.03515625 64.75 C-10.60105469 65.20117188 -11.16695312 65.65234375 -11.75 66.1171875 C-20.0697291 72.06188282 -30.2508534 73.71315849 -40.22265625 72.125 C-47.13623926 70.44864786 -52.12728951 67.36282096 -56.53515625 61.75 C-60.04396842 55.9724764 -60.06917163 50.30406671 -59.03515625 43.75 C-56.99870497 36.69030221 -53.5331407 32.55164247 -47.2265625 28.86328125 C-36.39656966 23.36141323 -23.85206764 24.6352727 -12.03515625 24.75 C-12.42760825 19.5167821 -12.42760825 19.5167821 -15.34765625 15.375 C-19.95033531 12.59198475 -23.65033528 12.32263326 -29.03515625 12.75 C-34.49820512 14.29340681 -39.00629378 15.70956034 -43.03515625 19.75 C-46.03515625 19.75 -46.03515625 19.75 -47.46484375 18.39453125 C-47.94179687 17.78996094 -48.41875 17.18539063 -48.91015625 16.5625 C-51.46569909 13.41918231 -54.12936409 10.57032768 -57.03515625 7.75 C-41.10174029 -5.61351016 -18.96222476 -11.64666396 0 0 Z M-37.03515625 43.75 C-37.62601625 45.68744199 -37.62601625 45.68744199 -37.47265625 47.75 C-37.47136719 48.430625 -37.47007813 49.11125 -37.46875 49.8125 C-36.90517365 52.33082316 -36.08924946 53.20943009 -34.03515625 54.75 C-28.17773071 56.47141303 -22.67433959 55.81770056 -17.03515625 53.75 C-13.96637302 51.59532241 -12.34606736 50.13285836 -11.51171875 46.421875 C-11.2519972 44.1896736 -11.08897875 41.99586632 -11.03515625 39.75 C-18.76683902 37.17277241 -30.97088889 37.89060653 -37.03515625 43.75 Z " fill="#000000" transform="translate(1098.03515625,473.25)"/>
<path d="M0 0 C0.84755859 0.0515625 1.69511719 0.103125 2.56835938 0.15625 C3.44943359 0.22070312 4.33050781 0.28515625 5.23828125 0.3515625 C6.13095703 0.40828125 7.02363281 0.465 7.94335938 0.5234375 C10.14665538 0.66482548 12.34879664 0.81622228 14.55078125 0.9765625 C15.21078125 2.9565625 15.87078125 4.9365625 16.55078125 6.9765625 C17.58203125 6.1928125 18.61328125 5.4090625 19.67578125 4.6015625 C25.27194237 0.34848005 30.98036122 -0.38948322 37.86328125 -0.3359375 C38.61657715 -0.33029785 39.36987305 -0.3246582 40.14599609 -0.31884766 C48.46129394 -0.13741644 54.84827294 1.44169362 61.05078125 7.2421875 C68.22009498 15.5317065 68.84405205 25.58405714 68.74609375 36.03515625 C68.74326385 37.17944595 68.74043396 38.32373566 68.73751831 39.50270081 C68.72636703 43.13992993 68.70127139 46.77690841 68.67578125 50.4140625 C68.66574494 52.88736622 68.65662023 55.36067382 68.6484375 57.83398438 C68.62644417 63.88160627 68.59194885 69.92904196 68.55078125 75.9765625 C61.29078125 75.9765625 54.03078125 75.9765625 46.55078125 75.9765625 C46.49470703 71.243125 46.49470703 71.243125 46.4375 66.4140625 C46.39121632 63.33928717 46.3400075 60.26463027 46.28833008 57.18994141 C46.25518843 55.06208566 46.22712338 52.93414427 46.2043457 50.80615234 C46.17060153 47.73758642 46.11827557 44.66979768 46.0625 41.6015625 C46.05611008 40.65853271 46.04972015 39.71550293 46.0431366 38.74389648 C45.91335128 32.84066183 45.10728869 28.33141423 42.55078125 22.9765625 C39.11291655 19.90420369 36.18627884 19.05726061 31.61328125 18.4765625 C27.04407773 18.74324753 23.22047546 20.25388615 19.55078125 22.9765625 C14.87205597 29.61733387 15.40574359 38.2096542 15.48828125 46.03515625 C15.49206787 46.8649147 15.49585449 47.69467316 15.49975586 48.54957581 C15.51186871 51.17112696 15.53052124 53.79256246 15.55078125 56.4140625 C15.57728405 59.89192366 15.59728053 63.36973281 15.61328125 66.84765625 C15.62157959 67.64860214 15.62987793 68.44954803 15.63842773 69.27476501 C15.64697155 71.17556951 15.60418035 73.07648901 15.55078125 74.9765625 C14.55078125 75.9765625 14.55078125 75.9765625 12.50952148 76.09008789 C11.63497314 76.08485107 10.7604248 76.07961426 9.859375 76.07421875 C8.91513672 76.07099609 7.97089844 76.06777344 6.99804688 76.06445312 C6.00482422 76.05607422 5.01160156 76.04769531 3.98828125 76.0390625 C2.99119141 76.03455078 1.99410156 76.03003906 0.96679688 76.02539062 C-1.50526724 76.01356257 -3.97721393 75.99708099 -6.44921875 75.9765625 C-7.76991115 70.9921186 -7.55732171 66.0463557 -7.51171875 60.93359375 C-7.50793213 59.96878586 -7.50414551 59.00397797 -7.50024414 58.00993347 C-7.48805167 54.93626394 -7.46941309 51.86268925 -7.44921875 48.7890625 C-7.42270697 44.73307559 -7.40268516 40.6771343 -7.38671875 36.62109375 C-7.37842041 35.6846553 -7.37012207 34.74821686 -7.36157227 33.78340149 C-7.35826904 32.91877792 -7.35496582 32.05415436 -7.3515625 31.16333008 C-7.34632568 30.40119705 -7.34108887 29.63906403 -7.33569336 28.85383606 C-7.33153548 26.88492275 -7.33153548 26.88492275 -8.44921875 24.9765625 C-8.30226563 23.95175781 -8.1553125 22.92695313 -8.00390625 21.87109375 C-7.31394319 17.02677566 -7.46181002 12.37409041 -7.6640625 7.49804688 C-7.70703125 5.42578125 -7.70703125 5.42578125 -7.44921875 1.9765625 C-4.22473728 -0.17309181 -3.6499091 -0.24496034 0 0 Z " fill="#000000" transform="translate(1195.44921875,468.0234375)"/>
<path d="M0 0 C2.70747502 2.19776818 5.25677756 4.49692569 7.625 7.0625 C6.48496765 10.48259706 5.40329802 11.35119442 2.6875 13.625 C0.59156037 15.39380568 -1.43494888 17.12244888 -3.375 19.0625 C-4.365 19.0625 -5.355 19.0625 -6.375 19.0625 C-8.04166667 17.39583333 -9.70833333 15.72916667 -11.375 14.0625 C-15.41972166 11.98317126 -18.98557261 11.73542386 -23.5 11.6875 C-24.71945312 11.65914063 -25.93890625 11.63078125 -27.1953125 11.6015625 C-30.4149645 11.77022375 -30.4149645 11.77022375 -32.3671875 13.8359375 C-33.53331666 15.98220458 -33.53331666 15.98220458 -33.3203125 18.21484375 C-32.52855791 20.19505651 -32.52855791 20.19505651 -30.6171875 21.00390625 C-29.83601562 21.20886719 -29.05484375 21.41382813 -28.25 21.625 C-27.35152344 21.86605469 -26.45304688 22.10710937 -25.52734375 22.35546875 C-21.9711902 23.15306948 -18.39906922 23.79097846 -14.8125 24.4375 C-5.67090296 26.225272 0.54832868 29.12028144 6.53125 36.31640625 C9.29218969 40.72404925 9.17364506 46.03847877 8.625 51.0625 C7.10854892 57.13743958 4.79475094 62.00987323 -0.2734375 65.81640625 C-12.64819036 73.15385265 -26.65597359 73.10782234 -40.375 70.0625 C-47.22054275 67.63461417 -54.97761015 63.47085832 -58.5625 56.87890625 C-58.830625 56.27949219 -59.09875 55.68007813 -59.375 55.0625 C-58.67632813 54.43601562 -57.97765625 53.80953125 -57.2578125 53.1640625 C-56.34773437 52.34679687 -55.43765625 51.52953125 -54.5 50.6875 C-53.14261719 49.46933594 -53.14261719 49.46933594 -51.7578125 48.2265625 C-50.26603817 46.87173795 -48.79994565 45.48744565 -47.375 44.0625 C-46.385 44.0625 -45.395 44.0625 -44.375 44.0625 C-43.83875 44.805 -43.3025 45.5475 -42.75 46.3125 C-38.70208921 50.9995546 -34.17700802 52.79673577 -28.0390625 53.37890625 C-20.89579289 53.60001826 -20.89579289 53.60001826 -14.375 51.0625 C-14.375 49.0825 -14.375 47.1025 -14.375 45.0625 C-19.05268877 43.54541175 -23.73229644 42.17532472 -28.54296875 41.1484375 C-39.49035331 38.80697063 -47.58550891 36.5266391 -54.375 27.0625 C-56.4059276 20.96971719 -56.48855753 13.59998609 -53.8125 7.6875 C-49.61684937 0.58148608 -43.08022114 -3.46750608 -35.20703125 -5.49609375 C-23.26470809 -7.35744895 -10.06411355 -7.25424243 0 0 Z " fill="#000000" transform="translate(968.375,473.9375)"/>
<path d="M0 0 C0 7.26 0 14.52 0 22 C6.20765272 22.28922373 6.20765272 22.28922373 12.41577148 22.56811523 C13.56928101 22.6252771 13.56928101 22.6252771 14.74609375 22.68359375 C15.53685303 22.72025146 16.3276123 22.75690918 17.14233398 22.79467773 C19 23 19 23 20 24 C20.07330331 26.86469325 20.09217831 29.69893674 20.0625 32.5625 C20.041875 35.346875 20.02125 38.13125 20 41 C13.4 41 6.8 41 0 41 C0.09691814 45.93007276 0.19963418 50.859301 0.31738281 55.78881836 C0.35566993 57.46582634 0.39052331 59.14291638 0.421875 60.82006836 C0.46753179 63.23060432 0.5255241 65.64057557 0.5859375 68.05078125 C0.59748871 68.80087967 0.60903992 69.55097809 0.62094116 70.32380676 C0.72695459 74.06127713 0.87619082 75.81428623 3 79 C8.31866909 80.35573918 11.84162301 79.60002352 17 78 C17.86524753 80.43407005 18.71742865 82.87143184 19.5625 85.3125 C19.9327832 86.34793945 19.9327832 86.34793945 20.31054688 87.40429688 C22.11328125 92.66015625 22.11328125 92.66015625 21 96 C12.47227313 100.64066997 1.68775105 100.70144253 -7.5546875 98.7265625 C-13.18867555 97.05256605 -16.7401833 93.77330302 -20 89 C-24.5185116 79.03042196 -23.12606411 67.05003719 -23.0625 56.3125 C-23.05747144 54.82096506 -23.05291095 53.32942846 -23.04882812 51.83789062 C-23.03793804 48.22522538 -23.02074936 44.61262368 -23 41 C-26.96 41 -30.92 41 -35 41 C-35 35.06 -35 29.12 -35 23 C-31.04 22.67 -27.08 22.34 -23 22 C-23 16.72 -23 11.44 -23 6 C-19.7306373 4.99496261 -16.45968077 3.99578359 -13.1875 3 C-11.7943457 2.57074219 -11.7943457 2.57074219 -10.37304688 2.1328125 C-9.48037109 1.86210937 -8.58769531 1.59140625 -7.66796875 1.3125 C-6.84578857 1.06113281 -6.0236084 0.80976563 -5.17651367 0.55078125 C-3 0 -3 0 0 0 Z " fill="#000000" transform="translate(1014,446)"/>
<path d="M0 0 C1.40958984 -0.00193359 1.40958984 -0.00193359 2.84765625 -0.00390625 C3.83636719 -0.00003906 4.82507812 0.00382812 5.84375 0.0078125 C7.32681641 0.00201172 7.32681641 0.00201172 8.83984375 -0.00390625 C9.77957031 -0.00261719 10.71929688 -0.00132812 11.6875 0 C12.55568359 0.00112793 13.42386719 0.00225586 14.31835938 0.00341797 C16.34375 0.1328125 16.34375 0.1328125 17.34375 1.1328125 C17.43818335 3.43335085 17.46117128 5.73683423 17.45727539 8.03930664 C17.45742142 8.76121689 17.45756744 9.48312714 17.4577179 10.22691345 C17.45701869 12.62396197 17.44922595 15.02093373 17.44140625 17.41796875 C17.4395421 19.07563739 17.43811818 20.73330657 17.43711853 22.39097595 C17.43329312 26.76235464 17.42346265 31.13370031 17.41241455 35.50506592 C17.40220092 39.96235711 17.39762101 44.41965361 17.39257812 48.87695312 C17.3818404 57.62892312 17.36424342 66.3808599 17.34375 75.1328125 C10.08375 75.1328125 2.82375 75.1328125 -4.65625 75.1328125 C-5.50161407 70.90599213 -5.78284399 67.51219241 -5.78564453 63.24707031 C-5.78739685 62.5749501 -5.78914917 61.9028299 -5.79095459 61.21034241 C-5.79533471 59.00218072 -5.79245004 56.79409991 -5.7890625 54.5859375 C-5.78973633 53.0484821 -5.79070701 51.51102681 -5.79196167 49.97357178 C-5.79343316 46.75922628 -5.79130053 43.54490865 -5.78662109 40.33056641 C-5.78090488 36.20213244 -5.78421818 32.07376321 -5.79019356 27.94533157 C-5.79379761 24.77473457 -5.79266164 21.60415306 -5.79006577 18.4335556 C-5.78939706 16.91044863 -5.79022298 15.38734027 -5.79254532 13.86423492 C-5.79507136 11.74311049 -5.79123288 9.62209298 -5.78564453 7.50097656 C-5.78484894 6.29250061 -5.78405334 5.08402466 -5.78323364 3.83892822 C-5.57342852 -0.63217467 -4.02771702 0.00523274 0 0 Z " fill="#000000" transform="translate(1160.65625,468.8671875)"/>
<path d="M0 0 C3.81941068 2.11365445 5.4897607 4.0901864 6.75 8.375 C6.65739783 13.65332389 5.5430386 16.68732358 1.75 20.375 C-2.74712755 23.15263761 -8.13351867 23.02275966 -13.25 22.375 C-17.45027734 20.46578303 -18.89177686 18.9990016 -21.1875 15 C-22.35729878 11.0089218 -22.7356036 9.25407607 -21.25 5.375 C-15.24703083 -1.17926226 -8.55286531 -3.79602309 0 0 Z " fill="#000000" transform="translate(1141.25,522.625)"/>
<path d="M0 0 C3.41648699 2.38359557 4.50031023 3.86823452 5.6875 7.875 C5.56026724 12.76073786 4.65266406 15.93337653 1.125 19.375 C-4.33329925 21.75680331 -8.90578413 22.6923752 -14.625 20.75 C-18.10196813 18.32420828 -20.8313077 16.29569188 -21.6953125 11.94921875 C-21.90316861 8.27016566 -21.52611227 6.25292941 -19.6875 3 C-14.08084399 -2.01648169 -6.87487299 -2.33486253 0 0 Z " fill="#000000" transform="translate(1175.3125,441.125)"/>
<path d="M0 0 C1.1875 1.5625 1.1875 1.5625 2 4 C1.24285334 5.69201037 0.48479516 7.38362585 -0.28025329 9.07207811 C-1.44002076 12.17864471 -1.36124991 15.1024412 -1.3473053 18.39607239 C-1.34845744 19.10709679 -1.34960958 19.81812119 -1.35079664 20.55069178 C-1.35105323 22.91532534 -1.32993442 25.2792669 -1.30883789 27.64379883 C-1.30471447 29.34599544 -1.30194714 31.0481958 -1.3004303 32.75039673 C-1.29434977 36.40631306 -1.2788687 40.06202464 -1.25605965 43.71787453 C-1.22022134 49.49482683 -1.206279 55.27170618 -1.19541931 61.04875183 C-1.1713164 72.26068259 -1.12459476 83.472465 -1.07582855 94.68431091 C-1.01494275 108.97410675 -0.96539652 123.26392293 -0.93383402 137.55381411 C-0.92041813 143.30115619 -0.89650455 149.04833251 -0.8644315 154.79559958 C-0.84638145 158.3618542 -0.83644506 161.9280982 -0.82866478 165.49438858 C-0.82330467 167.15289112 -0.81446465 168.81138645 -0.80196381 170.46985054 C-0.78539432 172.72626421 -0.78098702 174.98237952 -0.77967834 177.23884583 C-0.7739383 178.503672 -0.76819826 179.76849817 -0.76228428 181.07165241 C-1 184 -1 184 -3 186 C-3.7312793 181.41386233 -4.12541683 177.01706531 -4.12698364 172.37475586 C-4.12980347 171.08261673 -4.13262329 169.7904776 -4.13552856 168.45918274 C-4.13358457 167.04440293 -4.13153642 165.62962327 -4.12939453 164.21484375 C-4.130751 162.7110744 -4.13253232 161.20730538 -4.13470459 159.70353699 C-4.1392528 155.63075186 -4.13749927 151.55799216 -4.1343255 147.4852066 C-4.13178467 143.20677118 -4.13414458 138.92833786 -4.13571167 134.64990234 C-4.13752991 127.45751559 -4.13513774 120.2651391 -4.13037109 113.07275391 C-4.1249457 104.79148307 -4.12667996 96.51023693 -4.1321975 88.22896671 C-4.1367583 81.09489006 -4.13736424 73.96082077 -4.13475883 66.82674313 C-4.13321017 62.57694534 -4.13296284 58.32715908 -4.13629532 54.07736206 C-4.13921675 50.07182494 -4.13712116 46.06631909 -4.13140106 42.06078529 C-4.13009538 40.60287846 -4.13042949 39.14496892 -4.13266373 37.68706322 C-4.17066359 10.33599237 -4.17066359 10.33599237 0 0 Z " fill="#019FF9" transform="translate(303,392)"/>
<path d="M0 0 C1.04085251 0.00007553 2.08170502 0.00015106 3.15409851 0.00022888 C4.27605118 0.00539017 5.39800385 0.01055145 6.55395508 0.01586914 C7.70390457 0.01728409 8.85385406 0.01869904 10.03865051 0.02015686 C13.71695541 0.02576111 17.39519978 0.03831435 21.07348633 0.05102539 C23.56502191 0.05603984 26.05655844 0.06060284 28.5480957 0.06469727 C34.66074662 0.07573192 40.77336215 0.09247421 46.88598633 0.11352539 C48.24164199 2.82483672 48.02063694 4.9577643 48.03125 7.9934082 C48.03762985 9.22939758 48.0440097 10.46538696 48.05058289 11.73883057 C48.05211335 13.09810344 48.05322635 14.45737685 48.05395508 15.81665039 C48.0571709 17.21514927 48.06053522 18.61364781 48.06404114 20.012146 C48.07004068 22.95447567 48.07188066 25.89677597 48.07128906 28.83911133 C48.07118845 32.57069398 48.0847311 36.302082 48.10206127 40.03361893 C48.11331298 42.93024519 48.11520414 45.82682674 48.11467934 48.7234726 C48.11584396 50.09628712 48.12017816 51.46910339 48.1280117 52.84189606 C48.21864726 70.39626299 46.9052552 85.81302228 34.20239258 98.84008789 C33.76797852 99.26032227 33.33356445 99.68055664 32.88598633 100.11352539 C31.89598633 99.61852539 31.89598633 99.61852539 30.88598633 99.11352539 C31.40547852 98.59145508 31.9249707 98.06938477 32.46020508 97.53149414 C40.67690109 88.85915879 44.9472825 79.89184245 45.09130859 67.95825195 C45.10120819 67.2456572 45.11110779 66.53306244 45.12130737 65.7988739 C45.15281772 63.45066618 45.17763824 61.10243824 45.20239258 58.75415039 C45.22297115 57.12318403 45.24396786 55.4922229 45.2653656 53.86126709 C45.32049298 49.57383462 45.36994332 45.28635476 45.41821289 40.99884033 C45.46849616 36.62166133 45.52414656 32.24455092 45.5793457 27.86743164 C45.68681308 19.28285427 45.78828329 10.69821942 45.88598633 2.11352539 C44.89598633 2.44352539 43.90598633 2.77352539 42.88598633 3.11352539 C41.2858925 3.2104448 39.68211213 3.25166566 38.07910156 3.25878906 C37.10476669 3.26516891 36.13043182 3.27154877 35.12657166 3.27812195 C33.55148582 3.27979118 33.55148582 3.27979118 31.94458008 3.28149414 C30.86596207 3.28482254 29.78734406 3.28815094 28.67604065 3.2915802 C26.39552233 3.2966441 24.11499659 3.29898869 21.83447266 3.29882812 C18.3339429 3.30101885 14.8337261 3.31919201 11.33325195 3.33813477 C9.12036241 3.34106787 6.90747137 3.34305322 4.69458008 3.34399414 C3.64249863 3.35117966 2.59041718 3.35836517 1.50645447 3.36576843 C0.53527176 3.3626918 -0.43591095 3.35961517 -1.43652344 3.35644531 C-2.29351334 3.35787033 -3.15050323 3.35929535 -4.03346252 3.36076355 C-6.11401367 3.11352539 -6.11401367 3.11352539 -8.11401367 1.11352539 C-5.11034854 0.11230368 -3.13661774 -0.00759472 0 0 Z " fill="#036C61" transform="translate(517.114013671875,502.886474609375)"/>
<path d="M0 0 C3.07675357 2.80903234 4.86173259 5.31490098 6.55078125 9.11328125 C6.99873047 10.10755127 7.44667969 11.10182129 7.90820312 12.1262207 C8.37162109 13.17769287 8.83503906 14.22916504 9.3125 15.3125 C10.28757769 17.47924891 11.26283805 19.64591562 12.23828125 21.8125 C13.15900927 23.87493076 14.07959315 25.93742589 15 28 C16.32172628 30.94294591 17.65539953 33.87994769 19 36.8125 C19.515625 37.95332031 20.03125 39.09414063 20.5625 40.26953125 C21.84129808 42.6985526 22.92666266 44.24136565 25 46 C21.74102682 45.08306856 20.29160131 44.43112347 18.3671875 41.5859375 C17.87476563 40.52632813 17.38234375 39.46671875 16.875 38.375 C16.59495117 37.78759033 16.31490234 37.20018066 16.02636719 36.5949707 C14.02171461 32.3501665 12.1280831 28.0543452 10.2109375 23.76953125 C9.72254395 22.68559082 9.23415039 21.60165039 8.73095703 20.48486328 C7.74940078 18.29942002 6.77886599 16.10899076 5.81982422 13.91357422 C5.14330811 12.39981201 5.14330811 12.39981201 4.453125 10.85546875 C4.05254883 9.94434326 3.65197266 9.03321777 3.23925781 8.09448242 C2.11641055 5.67466881 2.11641055 5.67466881 -1 5 C-1.42514893 6.32112793 -1.42514893 6.32112793 -1.85888672 7.66894531 C-3.62929061 12.83697925 -5.89920163 17.76448788 -8.125 22.75 C-8.64416992 23.9150708 -9.16333984 25.0801416 -9.69824219 26.28051758 C-14.10652563 36.13364934 -18.65734673 45.91917206 -23.25 55.6875 C-23.74116302 56.73387634 -23.74116302 56.73387634 -24.24224854 57.8013916 C-26.14874429 61.85833039 -28.07560805 65.90477282 -30.01977539 69.94378662 C-31.04778525 72.10023893 -32.05021094 74.26763121 -33.05273438 76.43603516 C-33.73752766 77.88089126 -34.42305205 79.32540113 -35.109375 80.76953125 C-35.4107135 81.43619308 -35.712052 82.10285492 -36.02252197 82.78971863 C-38.2197532 87.34077507 -40.58091468 89.59578234 -45 92 C-47.91382976 92.59281364 -49.97593575 92.30240643 -53 92 C-53.66 91.34 -54.32 90.68 -55 90 C-53.205625 90.0928125 -53.205625 90.0928125 -51.375 90.1875 C-47.22641774 90.40208184 -44.49313617 89.22670035 -41 87 C-39.05435268 84.2845287 -39.05435268 84.2845287 -37.5625 80.8125 C-37.2437793 80.13743408 -36.92505859 79.46236816 -36.59667969 78.7668457 C-35.83844455 77.15465082 -35.08907756 75.53827018 -34.34619141 73.91894531 C-32.78090907 70.52494538 -31.17852347 67.14909051 -29.57421875 63.7734375 C-22.86000081 49.61319146 -16.30093439 35.39382143 -10.03222656 21.0300293 C-6.90810388 13.9023468 -3.54123921 6.92981887 0 0 Z " fill="#027870" transform="translate(483,458)"/>
<path d="M0 0 C6.41164329 5.49569425 9.4564284 13.77662169 10.18085098 22.0705719 C10.24351829 24.2559416 10.24782484 26.43297592 10.22705078 28.61914062 C10.22734283 29.43960876 10.22763489 30.2600769 10.22793579 31.10540771 C10.22655408 33.78913335 10.21104806 36.47257349 10.1953125 39.15625 C10.19157824 41.02811532 10.18873322 42.89998261 10.18673706 44.77185059 C10.17913311 49.6774646 10.15951267 54.58295853 10.1373291 59.48852539 C10.11318576 65.38571695 10.10407426 71.28294885 10.09242249 77.18017578 C10.07308621 86.12020048 10.03474108 95.05996214 10 104 C-4.85 104 -19.7 104 -35 104 C-36.65 100.7 -38.3 97.4 -40 94 C-39.01 93.01 -39.01 93.01 -38 92 C-37.01 95.3 -36.02 98.6 -35 102 C-33.76672974 101.75660889 -33.76672974 101.75660889 -32.50854492 101.50830078 C-28.60664821 100.94301312 -24.79512327 100.85621271 -20.86328125 100.8671875 C-20.10202438 100.86623077 -19.34076752 100.86527405 -18.55644226 100.86428833 C-16.9571423 100.86361123 -15.35783952 100.86543255 -13.75854492 100.86962891 C-11.30967073 100.87500621 -8.86097808 100.8696566 -6.41210938 100.86328125 C-4.85416626 100.86394168 -3.29622326 100.86522211 -1.73828125 100.8671875 C-1.00700516 100.86516327 -0.27572906 100.86313904 0.47770691 100.86105347 C3.59138108 100.87546298 6.0227912 101.00759707 9 102 C8.93856166 91.75909931 8.86129356 81.5184487 8.76428509 71.27781963 C8.71971856 66.52173777 8.68043284 61.76573887 8.65356445 57.00952148 C8.62739381 52.41224368 8.58689596 47.8152875 8.53681374 43.21821022 C8.5202375 41.47174926 8.50866606 39.72523279 8.50238609 37.97870445 C8.44741123 21.28299559 8.44741123 21.28299559 2.3125 5.9375 C0 2.16519174 0 2.16519174 0 0 Z " fill="#00BDAB" transform="translate(553,383)"/>
<path d="M0 0 C1.3736064 4.1208192 0.10196587 5.50146149 -1.76171875 9.37890625 C-2.06335434 10.01407166 -2.36498993 10.64923706 -2.67576599 11.3036499 C-3.67081461 13.39429482 -4.67921323 15.47821189 -5.6875 17.5625 C-6.38309377 19.01860173 -7.07758216 20.47523199 -7.77099609 21.93237305 C-8.82779289 24.15274122 -9.88529894 26.37273829 -10.94647217 28.59101868 C-14.07535173 35.13337376 -17.10916789 41.71732567 -20.125 48.3125 C-26.23852595 61.62800419 -32.60140153 74.81963481 -39 88 C-42.76836984 86.54660793 -43.92950226 84.87615268 -45.69921875 81.30078125 C-46.18213379 80.34534424 -46.66504883 79.38990723 -47.16259766 78.40551758 C-47.66581543 77.38482178 -48.1690332 76.36412598 -48.6875 75.3125 C-52.91657925 66.95255605 -57.32827007 58.82783384 -62.2578125 50.86328125 C-63.63016566 48.60782191 -64.87450151 46.38443237 -66 44 C-62.2436834 46.72521763 -60.05684394 49.11242011 -57.9140625 53.21875 C-57.11101685 54.7337207 -57.11101685 54.7337207 -56.29174805 56.27929688 C-55.74172119 57.34212891 -55.19169434 58.40496094 -54.625 59.5 C-53.47927136 61.6674109 -52.33214977 63.83408607 -51.18359375 66 C-50.3635083 67.55460937 -50.3635083 67.55460937 -49.52685547 69.140625 C-46.83455497 74.18255392 -43.95165132 79.10562544 -41 84 C-37.68064883 80.92159128 -36.03824262 77.30878106 -34.1484375 73.2578125 C-33.59078453 72.08171921 -33.59078453 72.08171921 -33.02186584 70.88186646 C-31.79970894 68.29927336 -30.58718621 65.71228617 -29.375 63.125 C-28.53038568 61.33414177 -27.68541079 59.54345356 -26.84008789 57.75292969 C-20.2201828 43.70508683 -13.7110344 29.60584427 -7.25732422 15.48095703 C-6.91680527 14.73578827 -6.57628632 13.99061951 -6.22544861 13.22286987 C-5.59392918 11.83986957 -4.96314628 10.45653259 -4.33326721 9.07278442 C-2.94080602 6.0206106 -1.52846436 2.98670831 0 0 Z " fill="#02786F" transform="translate(476,433)"/>
<path d="M0 0 C0.99 0 1.98 0 3 0 C3 18.15 3 36.3 3 55 C2.67 55 2.34 55 2 55 C1.14518609 49.10799549 0.8655149 43.41741829 0.90234375 37.46875 C0.9037587 36.59222778 0.90517365 35.71570557 0.90663147 34.81262207 C0.91218232 32.04171179 0.92472539 29.27088543 0.9375 26.5 C0.94252136 24.60937618 0.94708315 22.71875107 0.95117188 20.828125 C0.9621356 16.21871817 0.97936575 11.60937327 1 7 C-1.50933027 11.95367919 -3.98504575 16.9167169 -6.31640625 21.95703125 C-6.68830078 22.75947266 -7.06019531 23.56191406 -7.44335938 24.38867188 C-8.19757541 26.02214849 -8.94749038 27.65761704 -9.69335938 29.29492188 C-11.72484731 33.65820465 -13.75817727 37.37592152 -17 41 C-17.66 40.67 -18.32 40.34 -19 40 C-18.59007812 39.46632813 -18.18015625 38.93265625 -17.7578125 38.3828125 C-13.66812346 32.72769225 -11.83742876 27.91600651 -11 21 C-10.01 20.67 -9.02 20.34 -8 20 C-7.90847656 19.16210938 -7.81695312 18.32421875 -7.72265625 17.4609375 C-6.89195787 13.4825658 -5.31535657 10.1873497 -3.4375 6.625 C-3.10814453 5.98433594 -2.77878906 5.34367188 -2.43945312 4.68359375 C-1.63360518 3.11861368 -0.81781507 1.55875979 0 0 Z " fill="#028277" transform="translate(475,521)"/>
<path d="M0 0 C0.495 0.99 0.495 0.99 1 2 C-0.13283599 4.28444827 -1.32717353 6.43523831 -2.625 8.625 C-3.46429234 10.07694034 -4.30139524 11.53014771 -5.13671875 12.984375 C-5.82580322 14.18223633 -5.82580322 14.18223633 -6.52880859 15.40429688 C-9.23962447 20.18713697 -11.83140463 25.0345611 -14.4375 29.875 C-19.06990804 38.45755459 -23.75815897 47.00534338 -28.5078125 55.5234375 C-31.35528997 60.63140233 -34.17952871 65.7520843 -37 70.875 C-37.70406982 72.15165527 -37.70406982 72.15165527 -38.42236328 73.45410156 C-38.8604834 74.25041992 -39.29860352 75.04673828 -39.75 75.8671875 C-40.13671875 76.56956543 -40.5234375 77.27194336 -40.921875 77.99560547 C-41.98844665 79.9785206 -43.0037799 81.98095619 -44 84 C-44.99 84 -45.98 84 -47 84 C-48.03046722 82.21385682 -49.04913236 80.42089982 -50.0625 78.625 C-50.63097656 77.62726563 -51.19945312 76.62953125 -51.78515625 75.6015625 C-52.18605469 74.74304688 -52.58695312 73.88453125 -53 73 C-52.505 72.01 -52.505 72.01 -52 71 C-49.69 74.3 -47.38 77.6 -45 81 C-44.35675781 79.75089844 -43.71351563 78.50179687 -43.05078125 77.21484375 C-37.59393159 66.67723153 -31.94943719 56.27666332 -26.06542969 45.97167969 C-21.17472334 37.37896026 -16.48376798 28.68506314 -11.84448242 19.9543457 C-2.5719589 2.5719589 -2.5719589 2.5719589 0 0 Z " fill="#037C74" transform="translate(479,382)"/>
<path d="M0 0 C0.86066574 0.00007553 1.72133148 0.00015106 2.608078 0.00022888 C3.53316666 0.00539017 4.45825531 0.01055145 5.41137695 0.01586914 C6.36156204 0.01728409 7.31174713 0.01869904 8.29072571 0.02015686 C11.3270685 0.02575664 14.36333768 0.03830907 17.3996582 0.05102539 C19.45759985 0.05604042 21.51554265 0.06060332 23.57348633 0.06469727 C28.61973867 0.07572599 33.66593595 0.09299046 38.7121582 0.11352539 C38.7121582 0.77352539 38.7121582 1.43352539 38.7121582 2.11352539 C40.3621582 2.11352539 42.0121582 2.11352539 43.7121582 2.11352539 C43.7121582 2.44352539 43.7121582 2.77352539 43.7121582 3.11352539 C36.77045798 3.16411268 29.82880505 3.19921118 22.88696289 3.22338867 C20.52398909 3.23346463 18.16102781 3.24712568 15.7980957 3.2644043 C12.40743933 3.28858264 9.01694736 3.29999238 5.6262207 3.30883789 C4.56472809 3.31916046 3.50323547 3.32948303 2.40957642 3.34011841 C1.42871063 3.34026947 0.44784485 3.34042053 -0.56274414 3.34057617 C-1.86180191 3.34723801 -1.86180191 3.34723801 -3.18710327 3.35403442 C-5.2878418 3.11352539 -5.2878418 3.11352539 -7.2878418 1.11352539 C-4.50722205 0.18665214 -2.86732321 -0.00840857 0 0 Z " fill="#038A7E" transform="translate(516.287841796875,502.886474609375)"/>
<path d="M0 0 C2.83989273 1.41994637 3.00640596 3.08205665 4.16015625 6.01953125 C7.08631123 13.2646867 10.23978371 20.39030777 13.45629883 27.51000977 C14.11214444 28.9654681 14.76447369 30.42251591 15.41333008 31.88110352 C19.03633633 40.02398991 22.61953526 47.82730207 28 55 C16.19477831 49.51211015 9.90883061 25.92432658 5 14.5625 C4.40288208 13.185177 4.40288208 13.185177 3.79370117 11.7800293 C3.24613159 10.49866089 3.24613159 10.49866089 2.6875 9.19140625 C2.19830078 8.04973999 2.19830078 8.04973999 1.69921875 6.88500977 C1 5 1 5 1 3 C0.47156494 3.2673999 -0.05687012 3.5347998 -0.60131836 3.81030273 C-3.03972453 5.03389383 -5.48828958 6.23569086 -7.9375 7.4375 C-8.76830078 7.85837891 -9.59910156 8.27925781 -10.45507812 8.71289062 C-16.09107392 11.45413372 -20.73554504 12.65232591 -27 13 C-24.06309397 11.04206264 -21.91290615 10.29581973 -18.5625 9.3125 C-12.61220677 7.41362445 -7.65260619 4.63715748 -2.3984375 1.29296875 C-1.60695313 0.86628906 -0.81546875 0.43960937 0 0 Z " fill="#027AB9" transform="translate(400,493)"/>
<path d="M0 0 C3.7563166 2.72521763 5.94315606 5.11242011 8.0859375 9.21875 C8.62130127 10.22873047 9.15666504 11.23871094 9.70825195 12.27929688 C10.25827881 13.34212891 10.80830566 14.40496094 11.375 15.5 C12.52072864 17.6674109 13.66785023 19.83408607 14.81640625 22 C15.36312988 23.03640625 15.90985352 24.0728125 16.47314453 25.140625 C19.16544503 30.18255392 22.04834868 35.10562544 25 40 C27.87192801 37.32114278 29.33787273 34.56170128 31 31 C31.66 31.33 32.32 31.66 33 32 C31.02 35.96 29.04 39.92 27 44 C22.73008763 41.86504381 22.29465175 41.32901269 20.30078125 37.30078125 C19.81786621 36.34534424 19.33495117 35.38990723 18.83740234 34.40551758 C18.33418457 33.38482178 17.8309668 32.36412598 17.3125 31.3125 C13.08342075 22.95255605 8.67172993 14.82783384 3.7421875 6.86328125 C2.36983434 4.60782191 1.12549849 2.38443237 0 0 Z " fill="#01748A" transform="translate(410,477)"/>
<path d="M0 0 C0 3 0 3 -1.65234375 4.68359375 C-14.04806455 14.19757433 -26.44707841 17.26810392 -42 16 C-42.99 15.34 -43.98 14.68 -45 14 C-44.18015625 13.93941406 -43.3603125 13.87882813 -42.515625 13.81640625 C-40.89914062 13.69072266 -40.89914062 13.69072266 -39.25 13.5625 C-38.18265625 13.48128906 -37.1153125 13.40007813 -36.015625 13.31640625 C-33.12721724 13.09058987 -33.12721724 13.09058987 -30.890625 12.4453125 C-28.638495 11.91485213 -26.80132184 12.11688764 -24.5 12.3125 C-14.84598215 12.41231998 -6.72611831 6.42038566 0 0 Z " fill="#0783D5" transform="translate(379,597)"/>
<path d="M0 0 C3.125 6.625 3.125 6.625 2 10 C2 9.34 2 8.68 2 8 C1.01 8 0.02 8 -1 8 C-1.33 6.02 -1.66 4.04 -2 2 C-2.825 2.5775 -3.65 3.155 -4.5 3.75 C-13.12830232 9.42175118 -21.5507826 12.22592902 -32 12 C-32 11.01 -32 10.02 -32 9 C-31.34 8.67 -30.68 8.34 -30 8 C-29.34 8.33 -28.68 8.66 -28 9 C-20.44342959 9.1302857 -15.00706513 6.29045877 -8.49755859 2.79516602 C-3.2685452 0 -3.2685452 0 0 0 Z " fill="#00A6F7" transform="translate(401,496)"/>
<path d="M0 0 C0.66 1.32 1.32 2.64 2 4 C1.01 4 0.02 4 -1 4 C-3.86126469 10.08968281 -6.50502524 16.22702798 -8.9375 22.5 C-11.45814617 28.96636355 -14.49067388 35.01423453 -18 41 C-19.14892872 37.55321385 -18.9432276 37.26352775 -17.41015625 34.18359375 C-17.04156494 33.42739746 -16.67297363 32.67120117 -16.29321289 31.89208984 C-15.88707764 31.0820752 -15.48094238 30.27206055 -15.0625 29.4375 C-14.22699951 27.73152841 -13.39372181 26.02446668 -12.5625 24.31640625 C-12.13582031 23.44129395 -11.70914062 22.56618164 -11.26953125 21.66455078 C-8.89509169 16.68096745 -6.72210227 11.60589597 -4.56469727 6.52514648 C-2.21545289 1.10772645 -2.21545289 1.10772645 0 0 Z " fill="#00B8A9" transform="translate(484,462)"/>
<path d="M0 0 C0.66 0.66 1.32 1.32 2 2 C1.70754395 2.52432617 1.41508789 3.04865234 1.11376953 3.58886719 C-0.21672063 5.97541082 -1.54587276 8.36269708 -2.875 10.75 C-3.56529297 11.9875 -3.56529297 11.9875 -4.26953125 13.25 C-4.71425781 14.04921875 -5.15898437 14.8484375 -5.6171875 15.671875 C-6.02565918 16.4050293 -6.43413086 17.13818359 -6.85498047 17.89355469 C-7.95010736 19.90821456 -8.98761998 21.94271369 -10 24 C-10.99 24 -11.98 24 -13 24 C-14.03046722 22.21385682 -15.04913236 20.42089982 -16.0625 18.625 C-16.63097656 17.62726563 -17.19945312 16.62953125 -17.78515625 15.6015625 C-18.18605469 14.74304688 -18.58695312 13.88453125 -19 13 C-18.67 12.34 -18.34 11.68 -18 11 C-15.69 14.3 -13.38 17.6 -11 21 C-7.37 14.07 -3.74 7.14 0 0 Z " fill="#028282" transform="translate(445,442)"/>
<path d="M0 0 C0 0.33 0 0.66 0 1 C-0.79921875 0.98839844 -1.5984375 0.97679687 -2.421875 0.96484375 C-21.61752217 0.69770245 -21.61752217 0.69770245 -39 8 C-39.33 7.34 -39.66 6.68 -40 6 C-27.54714477 -0.81137384 -14.06403488 -3.40698519 0 0 Z " fill="#01A7FB" transform="translate(359,367)"/>
<path d="M0 0 C-0.89460938 0.38929688 -1.78921875 0.77859375 -2.7109375 1.1796875 C-11.52561824 5.19602456 -17.55992573 9.62507624 -24 17 C-24.33 16.34 -24.66 15.68 -25 15 C-20.14912369 8.67137329 -15.0382973 4.70188501 -8 1 C-7.32324219 0.59523438 -6.64648438 0.19046875 -5.94921875 -0.2265625 C-3.55876103 -1.1750808 -2.38113302 -0.85040465 0 0 Z " fill="#00B8A8" transform="translate(504,369)"/>
<path d="M0 0 C1 3 1 3 -0.3125 6 C-2 9 -2 9 -4 12 C-4.185625 13.2065625 -4.185625 13.2065625 -4.375 14.4375 C-5.16448125 17.67437314 -6.53036646 18.82091158 -9 21 C-9.5775 21.5775 -10.155 22.155 -10.75 22.75 C-11.1625 23.1625 -11.575 23.575 -12 24 C-10.42195846 18.39523177 -7.73583615 13.64949374 -4.875 8.625 C-4.17310547 7.37783203 -4.17310547 7.37783203 -3.45703125 6.10546875 C-2.30929451 4.06765046 -1.15686718 2.03264431 0 0 Z " fill="#00B8AD" transform="translate(453,431)"/>
<path d="M0 0 C2.70241335 1.00987889 3.795196 1.61038969 5.16015625 4.20703125 C5.45792969 5.06683594 5.75570313 5.92664063 6.0625 6.8125 C7.15011365 9.80343753 8.15740803 12.26053742 9.8125 15 C10.204375 15.66 10.59625 16.32 11 17 C10.67 17.66 10.34 18.32 10 19 C8.32626249 16.21251481 6.66223733 13.41935573 5 10.625 C4.28457031 9.43390625 4.28457031 9.43390625 3.5546875 8.21875 C3.10351562 7.45820313 2.65234375 6.69765625 2.1875 5.9140625 C1.76855469 5.2123291 1.34960938 4.5105957 0.91796875 3.78759766 C0 2 0 2 0 0 Z " fill="#02A0F1" transform="translate(388,392)"/>
<path d="M0 0 C2.97639153 1.48819577 3.27245091 3.64482498 4.5 6.6875 C4.9228125 7.72261719 5.345625 8.75773437 5.78125 9.82421875 C6.94561709 12.85829069 7.99890565 15.90865774 9 19 C8.34 19 7.68 19 7 19 C5.9955866 16.7101766 4.99632388 14.4183401 4 12.125 C3.71382813 11.47402344 3.42765625 10.82304687 3.1328125 10.15234375 C1 5.2265625 1 5.2265625 1 3 C0.34 3 -0.32 3 -1 3 C-0.67 2.01 -0.34 1.02 0 0 Z " fill="#027DBF" transform="translate(400,493)"/>
<path d="M0 0 C0.99 0 1.98 0 3 0 C4.32 2.64 5.64 5.28 7 8 C5.68 8 4.36 8 3 8 C2.34 8.99 1.68 9.98 1 11 C0.67 7.37 0.34 3.74 0 0 Z " fill="#0199EC" transform="translate(388,525)"/>
<path d="M0 0 C6.04168421 4.02778947 7.4542592 8.01704814 9 15 C4.23475981 10.56339706 1.878037 6.21196855 0 0 Z " fill="#019FEA" transform="translate(407,424)"/>
<path d="M0 0 C1.11132812 3.75439453 1.11132812 3.75439453 0.109375 5.96484375 C-0.33921875 6.61582031 -0.7878125 7.26679688 -1.25 7.9375 C-1.71277344 8.62714844 -2.17554688 9.31679688 -2.65234375 10.02734375 C-3.09707031 10.67832031 -3.54179687 11.32929688 -4 12 C-5.00509214 13.66360078 -6.00769103 15.32874278 -7 17 C-7.33 16.34 -7.66 15.68 -8 15 C-6.75874818 12.38838269 -5.4689476 9.89498214 -4.0625 7.375 C-3.48338867 6.31539063 -3.48338867 6.31539063 -2.89257812 5.234375 C-1.93551304 3.48566349 -0.96865969 1.74231568 0 0 Z " fill="#01B8AB" transform="translate(476,389)"/>
<path d="M0 0 C0.66 0.33 1.32 0.66 2 1 C0.02 4.96 -1.96 8.92 -4 13 C-5.32 12.34 -6.64 11.68 -8 11 C-6.88497867 9.88497867 -5.75242106 8.78471397 -4.5625 7.75 C-2.47624731 5.41339698 -1.31825065 2.82482283 0 0 Z " fill="#028483" transform="translate(441,508)"/>
<path d="M0 0 C0.33 0.99 0.66 1.98 1 3 C-3.75 1.125 -3.75 1.125 -6 0 C-7.87379605 -0.07033769 -9.75001102 -0.0843022 -11.625 -0.0625 C-13.12933594 -0.04896484 -13.12933594 -0.04896484 -14.6640625 -0.03515625 C-15.82035156 -0.01775391 -15.82035156 -0.01775391 -17 0 C-16.67 -0.66 -16.34 -1.32 -16 -2 C-10.26581997 -3.55300709 -5.27173015 -2.85080686 0 0 Z " fill="#00A9F7" transform="translate(409,472)"/>
<path d="M0 0 C3.2614415 3.02848139 5.57436244 6.28068908 8 10 C8.66 10.66 9.32 11.32 10 12 C8.68 12.33 7.36 12.66 6 13 C4.99491199 11.21118264 3.99607264 9.41885304 3 7.625 C2.1646875 6.12839844 2.1646875 6.12839844 1.3125 4.6015625 C0 2 0 2 0 0 Z " fill="#0188A4" transform="translate(426,453)"/>
<path d="M0 0 C0.66 0.66 1.32 1.32 2 2 C1.55785156 2.56332031 1.11570312 3.12664062 0.66015625 3.70703125 C-1.48937629 6.67591502 -3.11448853 9.83474297 -4.81640625 13.07421875 C-6 15 -6 15 -8 16 C-6.42986223 10.03347646 -3.24970218 5.17090975 0 0 Z " fill="#00BAAB" transform="translate(462,415)"/>
<path d="M0 0 C1.32 0 2.64 0 4 0 C4 2.64 4 5.28 4 8 C1.84622436 5.37801226 0.59927826 3.35595828 0 0 Z " fill="#00A4F1" transform="translate(396,536)"/>
<path d="M0 0 C2.79872437 2.52788007 4.45773019 4.20411134 5 8 C4.34 8 3.68 8 3 8 C0.8125 5.6875 0.8125 5.6875 -1 3 C-0.67 2.01 -0.34 1.02 0 0 Z " fill="#018576" transform="translate(483,458)"/>
<path d="M0 0 C2.64 0 5.28 0 8 0 C8.33 0.66 8.66 1.32 9 2 C8.34 2.66 7.68 3.32 7 4 C7 3.34 7 2.68 7 2 C4.36 2 1.72 2 -1 2 C-0.67 1.34 -0.34 0.68 0 0 Z " fill="#05736B" transform="translate(556,503)"/>
<path d="M0 0 C0.33 0 0.66 0 1 0 C1 1.98 1 3.96 1 6 C0.67 6 0.34 6 0 6 C0 4.02 0 2.04 0 0 Z " fill="#07A9F4" transform="translate(391,537)"/>
<path d="" fill="#08A9F3" transform="translate(0,0)"/>
<path d="M0 0 C3 1 3 1 3 1 Z " fill="#030405" transform="translate(771,546)"/>
<path d="" fill="#020203" transform="translate(0,0)"/>
<path d="M0 0 C3 1 3 1 3 1 Z " fill="#0F98E5" transform="translate(352,363)"/>
<path d="" fill="#777879" transform="translate(0,0)"/>
<path d="M0 0 C2 1 2 1 2 1 Z " fill="#119AE6" transform="translate(341,614)"/>
<path d="M0 0 C2 1 2 1 2 1 Z " fill="#040304" transform="translate(1059,546)"/>
<path d="M0 0 C2 1 2 1 2 1 Z " fill="#030404" transform="translate(851,546)"/>
<path d="M0 0 C2 1 2 1 2 1 Z " fill="#030405" transform="translate(1044,542)"/>
<path d="M0 0 C2 1 2 1 2 1 Z " fill="#030301" transform="translate(1025,524)"/>
<path d="M0 0 C2 1 2 1 2 1 Z " fill="#010001" transform="translate(1062,523)"/>
<path d="M0 0 C2 1 2 1 2 1 Z " fill="#020202" transform="translate(947,486)"/>
<path d="M0 0 C2 1 2 1 2 1 Z " fill="#020402" transform="translate(950,466)"/>
<path d="M0 0 C2 1 2 1 2 1 Z " fill="#0F99EA" transform="translate(321,368)"/>
<path d="" fill="#747675" transform="translate(0,0)"/>
<path d="" fill="#79797C" transform="translate(0,0)"/>
<path d="" fill="#888888" transform="translate(0,0)"/>
<path d="" fill="#787877" transform="translate(0,0)"/>
<path d="" fill="#757878" transform="translate(0,0)"/>
<path d="" fill="#737675" transform="translate(0,0)"/>
<path d="" fill="#828381" transform="translate(0,0)"/>
<path d="" fill="#7D7E7F" transform="translate(0,0)"/>
<path d="" fill="#747574" transform="translate(0,0)"/>
<path d="" fill="#727373" transform="translate(0,0)"/>
<path d="" fill="#757676" transform="translate(0,0)"/>
<path d="" fill="#888988" transform="translate(0,0)"/>
<path d="" fill="#89898A" transform="translate(0,0)"/>
<path d="" fill="#8D8E8F" transform="translate(0,0)"/>
<path d="" fill="#777979" transform="translate(0,0)"/>
<path d="" fill="#878987" transform="translate(0,0)"/>
<path d="" fill="#737573" transform="translate(0,0)"/>
<path d="" fill="#747575" transform="translate(0,0)"/>
<path d="" fill="#717273" transform="translate(0,0)"/>
<path d="" fill="#8D8C8D" transform="translate(0,0)"/>
<path d="" fill="#717373" transform="translate(0,0)"/>
<path d="" fill="#767776" transform="translate(0,0)"/>
<path d="" fill="#747576" transform="translate(0,0)"/>
<path d="" fill="#8B8C8D" transform="translate(0,0)"/>
<path d="" fill="#6F7271" transform="translate(0,0)"/>
<path d="" fill="#757476" transform="translate(0,0)"/>
<path d="" fill="#727675" transform="translate(0,0)"/>
<path d="" fill="#6E6E70" transform="translate(0,0)"/>
<path d="" fill="#8B8C8C" transform="translate(0,0)"/>
<path d="" fill="#6D7070" transform="translate(0,0)"/>
<path d="" fill="#737375" transform="translate(0,0)"/>
<path d="" fill="#797A7A" transform="translate(0,0)"/>
<path d="" fill="#737575" transform="translate(0,0)"/>
<path d="" fill="#6D6F6D" transform="translate(0,0)"/>
<path d="" fill="#727271" transform="translate(0,0)"/>
<path d="" fill="#6C6D6E" transform="translate(0,0)"/>
<path d="" fill="#686B6B" transform="translate(0,0)"/>
<path d="" fill="#898A8B" transform="translate(0,0)"/>
<path d="" fill="#6E7070" transform="translate(0,0)"/>
<path d="" fill="#6E6E6E" transform="translate(0,0)"/>
<path d="" fill="#797979" transform="translate(0,0)"/>
<path d="" fill="#6B6B6A" transform="translate(0,0)"/>
<path d="" fill="#88898A" transform="translate(0,0)"/>
<path d="" fill="#6C6E6E" transform="translate(0,0)"/>
<path d="" fill="#7E7E7E" transform="translate(0,0)"/>
<path d="" fill="#838485" transform="translate(0,0)"/>
<path d="" fill="#87898A" transform="translate(0,0)"/>
<path d="" fill="#646666" transform="translate(0,0)"/>
<path d="" fill="#6A6C6C" transform="translate(0,0)"/>
<path d="" fill="#666968" transform="translate(0,0)"/>
<path d="" fill="#636564" transform="translate(0,0)"/>
<path d="" fill="#69696B" transform="translate(0,0)"/>
<path d="" fill="#6E6F6E" transform="translate(0,0)"/>
<path d="" fill="#838282" transform="translate(0,0)"/>
<path d="" fill="#5F6162" transform="translate(0,0)"/>
<path d="" fill="#666669" transform="translate(0,0)"/>
<path d="" fill="#6C6D6F" transform="translate(0,0)"/>
<path d="" fill="#5E5F5C" transform="translate(0,0)"/>
<path d="" fill="#828183" transform="translate(0,0)"/>
<path d="" fill="#878888" transform="translate(0,0)"/>
<path d="" fill="#636566" transform="translate(0,0)"/>
<path d="" fill="#878888" transform="translate(0,0)"/>
<path d="" fill="#6A696C" transform="translate(0,0)"/>
<path d="" fill="#626562" transform="translate(0,0)"/>
<path d="" fill="#868789" transform="translate(0,0)"/>
<path d="" fill="#5D5D5E" transform="translate(0,0)"/>
<path d="" fill="#616264" transform="translate(0,0)"/>
<path d="" fill="#5A5A5C" transform="translate(0,0)"/>
<path d="" fill="#565758" transform="translate(0,0)"/>
<path d="" fill="#6C6C6E" transform="translate(0,0)"/>
<path d="" fill="#868687" transform="translate(0,0)"/>
<path d="" fill="#878687" transform="translate(0,0)"/>
<path d="" fill="#565859" transform="translate(0,0)"/>
<path d="" fill="#727375" transform="translate(0,0)"/>
<path d="" fill="#7F7D7F" transform="translate(0,0)"/>
<path d="" fill="#6B6A6C" transform="translate(0,0)"/>
<path d="" fill="#868787" transform="translate(0,0)"/>
<path d="" fill="#4D4F4F" transform="translate(0,0)"/>
<path d="" fill="#535757" transform="translate(0,0)"/>
<path d="" fill="#515455" transform="translate(0,0)"/>
<path d="" fill="#7C7D7F" transform="translate(0,0)"/>
<path d="" fill="#4D5050" transform="translate(0,0)"/>
<path d="" fill="#525153" transform="translate(0,0)"/>
<path d="" fill="#494D4E" transform="translate(0,0)"/>
<path d="" fill="#868787" transform="translate(0,0)"/>
<path d="" fill="#464B4C" transform="translate(0,0)"/>
<path d="" fill="#868787" transform="translate(0,0)"/>
<path d="" fill="#3A3B3A" transform="translate(0,0)"/>
<path d="" fill="#444A4A" transform="translate(0,0)"/>
<path d="" fill="#878688" transform="translate(0,0)"/>
<path d="" fill="#41484A" transform="translate(0,0)"/>
<path d="" fill="#868786" transform="translate(0,0)"/>
<path d="" fill="#333534" transform="translate(0,0)"/>
<path d="" fill="#545254" transform="translate(0,0)"/>
<path d="" fill="#2F3030" transform="translate(0,0)"/>
<path d="" fill="#525354" transform="translate(0,0)"/>
<path d="" fill="#848687" transform="translate(0,0)"/>
<path d="" fill="#858587" transform="translate(0,0)"/>
<path d="" fill="#848686" transform="translate(0,0)"/>
<path d="" fill="#838687" transform="translate(0,0)"/>
<path d="" fill="#272726" transform="translate(0,0)"/>
<path d="" fill="#4E4F4E" transform="translate(0,0)"/>
<path d="" fill="#344243" transform="translate(0,0)"/>
<path d="" fill="#252826" transform="translate(0,0)"/>
<path d="" fill="#314345" transform="translate(0,0)"/>
<path d="" fill="#828486" transform="translate(0,0)"/>
<path d="" fill="#838485" transform="translate(0,0)"/>
<path d="" fill="#2C2F2C" transform="translate(0,0)"/>
<path d="" fill="#818486" transform="translate(0,0)"/>
<path d="" fill="#2E4445" transform="translate(0,0)"/>
<path d="" fill="#333232" transform="translate(0,0)"/>
<path d="" fill="#818485" transform="translate(0,0)"/>
<path d="" fill="#2C4546" transform="translate(0,0)"/>
<path d="" fill="#808485" transform="translate(0,0)"/>
<path d="" fill="#1B1E1D" transform="translate(0,0)"/>
<path d="" fill="#294548" transform="translate(0,0)"/>
<path d="" fill="#7F8585" transform="translate(0,0)"/>
<path d="" fill="#7E8385" transform="translate(0,0)"/>
<path d="" fill="#7F8285" transform="translate(0,0)"/>
<path d="" fill="#254D4E" transform="translate(0,0)"/>
<path d="" fill="#7D8384" transform="translate(0,0)"/>
<path d="" fill="#363737" transform="translate(0,0)"/>
<path d="" fill="#7C8185" transform="translate(0,0)"/>
<path d="" fill="#7C8284" transform="translate(0,0)"/>
<path d="" fill="#225356" transform="translate(0,0)"/>
<path d="" fill="#7B8184" transform="translate(0,0)"/>
<path d="" fill="#101413" transform="translate(0,0)"/>
<path d="" fill="#141817" transform="translate(0,0)"/>
<path d="" fill="#333434" transform="translate(0,0)"/>
<path d="" fill="#0F1311" transform="translate(0,0)"/>
<path d="" fill="#205B5C" transform="translate(0,0)"/>
<path d="" fill="#0D0F0F" transform="translate(0,0)"/>
<path d="" fill="#1D6B6C" transform="translate(0,0)"/>
<path d="" fill="#798385" transform="translate(0,0)"/>
<path d="" fill="#798187" transform="translate(0,0)"/>
<path d="" fill="#667B85" transform="translate(0,0)"/>
<path d="" fill="#788185" transform="translate(0,0)"/>
<path d="" fill="#0B0F0E" transform="translate(0,0)"/>
<path d="" fill="#788286" transform="translate(0,0)"/>
<path d="" fill="#09A298" transform="translate(0,0)"/>
<path d="" fill="#1299E5" transform="translate(0,0)"/>
<path d="" fill="#1199E4" transform="translate(0,0)"/>
<path d="" fill="#109AE7" transform="translate(0,0)"/>
<path d="" fill="#119CE6" transform="translate(0,0)"/>
<path d="" fill="#667E87" transform="translate(0,0)"/>
<path d="" fill="#09A59B" transform="translate(0,0)"/>
<path d="" fill="#768186" transform="translate(0,0)"/>
<path d="" fill="#0C9EE9" transform="translate(0,0)"/>
<path d="" fill="#0DA79D" transform="translate(0,0)"/>
<path d="" fill="#06A69C" transform="translate(0,0)"/>
<path d="" fill="#09A49D" transform="translate(0,0)"/>
<path d="" fill="#113C3A" transform="translate(0,0)"/>
<path d="" fill="#1996DF" transform="translate(0,0)"/>
<path d="" fill="#0CAAA1" transform="translate(0,0)"/>
<path d="" fill="#0FA096" transform="translate(0,0)"/>
<path d="" fill="#0BA6A2" transform="translate(0,0)"/>
<path d="" fill="#0CA1ED" transform="translate(0,0)"/>
<path d="" fill="#070E0E" transform="translate(0,0)"/>
<path d="" fill="#1394E7" transform="translate(0,0)"/>
<path d="" fill="#768386" transform="translate(0,0)"/>
<path d="" fill="#1197E7" transform="translate(0,0)"/>
<path d="" fill="#758187" transform="translate(0,0)"/>
<path d="" fill="#080E0D" transform="translate(0,0)"/>
<path d="" fill="#0EA6D0" transform="translate(0,0)"/>
<path d="" fill="#0AA3F0" transform="translate(0,0)"/>
<path d="" fill="#768286" transform="translate(0,0)"/>
<path d="" fill="#08A3F1" transform="translate(0,0)"/>
<path d="" fill="#080C0C" transform="translate(0,0)"/>
<path d="" fill="#08A6F1" transform="translate(0,0)"/>
<path d="" fill="#0DA4E6" transform="translate(0,0)"/>
<path d="" fill="#09A8F2" transform="translate(0,0)"/>
<path d="" fill="#040705" transform="translate(0,0)"/>
<path d="" fill="#040505" transform="translate(0,0)"/>
<path d="" fill="#020406" transform="translate(0,0)"/>
<path d="" fill="#060304" transform="translate(0,0)"/>
<path d="" fill="#0A2F2C" transform="translate(0,0)"/>
<path d="" fill="#000100" transform="translate(0,0)"/>
<path d="" fill="#090809" transform="translate(0,0)"/>
<path d="" fill="#748088" transform="translate(0,0)"/>
<path d="" fill="#040406" transform="translate(0,0)"/>
<path d="" fill="#050606" transform="translate(0,0)"/>
<path d="" fill="#748286" transform="translate(0,0)"/>
<path d="" fill="#040304" transform="translate(0,0)"/>
<path d="" fill="#05100F" transform="translate(0,0)"/>
<path d="" fill="#031413" transform="translate(0,0)"/>
<path d="" fill="#05AFA3" transform="translate(0,0)"/>
<path d="" fill="#758188" transform="translate(0,0)"/>
<path d="" fill="#020303" transform="translate(0,0)"/>
<path d="" fill="#020202" transform="translate(0,0)"/>
<path d="" fill="#05AFA5" transform="translate(0,0)"/>
<path d="" fill="#000202" transform="translate(0,0)"/>
<path d="" fill="#748288" transform="translate(0,0)"/>
<path d="" fill="#020302" transform="translate(0,0)"/>
<path d="" fill="#030D0C" transform="translate(0,0)"/>
<path d="" fill="#020002" transform="translate(0,0)"/>
<path d="" fill="#010101" transform="translate(0,0)"/>
<path d="" fill="#010100" transform="translate(0,0)"/>
<path d="" fill="#738289" transform="translate(0,0)"/>
<path d="" fill="#030304" transform="translate(0,0)"/>
<path d="" fill="#050304" transform="translate(0,0)"/>
<path d="" fill="#010403" transform="translate(0,0)"/>
<path d="" fill="#07A6E7" transform="translate(0,0)"/>
<path d="" fill="#738188" transform="translate(0,0)"/>
<path d="" fill="#040101" transform="translate(0,0)"/>
<path d="" fill="#09A7F7" transform="translate(0,0)"/>
<path d="" fill="#020103" transform="translate(0,0)"/>
<path d="" fill="#000000" transform="translate(0,0)"/>
<path d="" fill="#040302" transform="translate(0,0)"/>
<path d="" fill="#728188" transform="translate(0,0)"/>
<path d="" fill="#020303" transform="translate(0,0)"/>
<path d="" fill="#728288" transform="translate(0,0)"/>
<path d="" fill="#04AAD9" transform="translate(0,0)"/>
<path d="" fill="#06B2A4" transform="translate(0,0)"/>
<path d="" fill="#0AB1A3" transform="translate(0,0)"/>
<path d="" fill="#07B4A4" transform="translate(0,0)"/>
<path d="" fill="#020101" transform="translate(0,0)"/>
<path d="" fill="#040404" transform="translate(0,0)"/>
<path d="" fill="#09A6F7" transform="translate(0,0)"/>
<path d="" fill="#000000" transform="translate(0,0)"/>
<path d="" fill="#0AA89D" transform="translate(0,0)"/>
<path d="" fill="#738188" transform="translate(0,0)"/>
<path d="" fill="#08A4F5" transform="translate(0,0)"/>
<path d="" fill="#05AFA2" transform="translate(0,0)"/>
<path d="" fill="#06A4DB" transform="translate(0,0)"/>
<path d="" fill="#0F9AF0" transform="translate(0,0)"/>
<path d="" fill="#738186" transform="translate(0,0)"/>
<path d="" fill="#010201" transform="translate(0,0)"/>
<path d="" fill="#09A6E2" transform="translate(0,0)"/>
<path d="" fill="#717F88" transform="translate(0,0)"/>
<path d="" fill="#05A7F4" transform="translate(0,0)"/>
<path d="" fill="#728087" transform="translate(0,0)"/>
<path d="" fill="#040404" transform="translate(0,0)"/>
<path d="" fill="#010504" transform="translate(0,0)"/>
<path d="" fill="#000301" transform="translate(0,0)"/>
<path d="" fill="#050505" transform="translate(0,0)"/>
<path d="" fill="#02B0A1" transform="translate(0,0)"/>
<path d="" fill="#718088" transform="translate(0,0)"/>
<path d="" fill="#07AEA3" transform="translate(0,0)"/>
<path d="" fill="#080606" transform="translate(0,0)"/>
<path d="" fill="#050606" transform="translate(0,0)"/>
<path d="" fill="#000101" transform="translate(0,0)"/>
<path d="" fill="#020504" transform="translate(0,0)"/>
<path d="" fill="#04B2A2" transform="translate(0,0)"/>
<path d="" fill="#0C0C11" transform="translate(0,0)"/>
<path d="" fill="#030204" transform="translate(0,0)"/>
<path d="" fill="#030506" transform="translate(0,0)"/>
<path d="" fill="#030302" transform="translate(0,0)"/>
<path d="" fill="#020403" transform="translate(0,0)"/>
<path d="" fill="#010602" transform="translate(0,0)"/>
<path d="" fill="#010505" transform="translate(0,0)"/>
<path d="" fill="#050608" transform="translate(0,0)"/>
<path d="" fill="#040504" transform="translate(0,0)"/>
<path d="" fill="#738188" transform="translate(0,0)"/>
<path d="" fill="#060707" transform="translate(0,0)"/>
<path d="" fill="#050707" transform="translate(0,0)"/>
<path d="" fill="#060405" transform="translate(0,0)"/>
<path d="" fill="#617C8A" transform="translate(0,0)"/>
<path d="" fill="#01B3AA" transform="translate(0,0)"/>
<path d="" fill="#718086" transform="translate(0,0)"/>
<path d="" fill="#0D0D0E" transform="translate(0,0)"/>
<path d="" fill="#080C0A" transform="translate(0,0)"/>
<path d="" fill="#707F85" transform="translate(0,0)"/>
<path d="" fill="#050B08" transform="translate(0,0)"/>
<path d="" fill="#0E9CEC" transform="translate(0,0)"/>
<path d="" fill="#738085" transform="translate(0,0)"/>
<path d="" fill="#10A2EA" transform="translate(0,0)"/>
<path d="" fill="#191B1B" transform="translate(0,0)"/>
<path d="" fill="#0F98E8" transform="translate(0,0)"/>
<path d="" fill="#6B7F87" transform="translate(0,0)"/>
<path d="" fill="#050909" transform="translate(0,0)"/>
<path d="" fill="#1496E8" transform="translate(0,0)"/>
<path d="" fill="#727E85" transform="translate(0,0)"/>
<path d="" fill="#737F86" transform="translate(0,0)"/>
<path d="" fill="#1597E6" transform="translate(0,0)"/>
<path d="" fill="#767F84" transform="translate(0,0)"/>
<path d="" fill="#727F84" transform="translate(0,0)"/>
<path d="" fill="#070B0A" transform="translate(0,0)"/>
<path d="" fill="#059B95" transform="translate(0,0)"/>
<path d="" fill="#737E83" transform="translate(0,0)"/>
<path d="" fill="#109C97" transform="translate(0,0)"/>
<path d="" fill="#09A69A" transform="translate(0,0)"/>
<path d="" fill="#1298E5" transform="translate(0,0)"/>
<path d="" fill="#0B0C0C" transform="translate(0,0)"/>
<path d="" fill="#737D82" transform="translate(0,0)"/>
<path d="" fill="#737E81" transform="translate(0,0)"/>
<path d="" fill="#737C83" transform="translate(0,0)"/>
<path d="" fill="#737D82" transform="translate(0,0)"/>
<path d="" fill="#080B0B" transform="translate(0,0)"/>
<path d="" fill="#138886" transform="translate(0,0)"/>
<path d="" fill="#0B0C0C" transform="translate(0,0)"/>
<path d="" fill="#157F7D" transform="translate(0,0)"/>
<path d="" fill="#757D81" transform="translate(0,0)"/>
<path d="" fill="#0F1110" transform="translate(0,0)"/>
<path d="" fill="#282828" transform="translate(0,0)"/>
<path d="" fill="#757D80" transform="translate(0,0)"/>
<path d="" fill="#0A0E0D" transform="translate(0,0)"/>
<path d="" fill="#757D7F" transform="translate(0,0)"/>
<path d="" fill="#185559" transform="translate(0,0)"/>
<path d="" fill="#232522" transform="translate(0,0)"/>
<path d="" fill="#0C1010" transform="translate(0,0)"/>
<path d="" fill="#1B4D50" transform="translate(0,0)"/>
<path d="" fill="#797E80" transform="translate(0,0)"/>
<path d="" fill="#7A7D81" transform="translate(0,0)"/>
<path d="" fill="#7A7E80" transform="translate(0,0)"/>
<path d="" fill="#797F80" transform="translate(0,0)"/>
<path d="" fill="#7C8081" transform="translate(0,0)"/>
<path d="" fill="#141717" transform="translate(0,0)"/>
<path d="" fill="#21383A" transform="translate(0,0)"/>
<path d="" fill="#272829" transform="translate(0,0)"/>
<path d="" fill="#17191A" transform="translate(0,0)"/>
<path d="" fill="#3B3C3C" transform="translate(0,0)"/>
<path d="" fill="#253336" transform="translate(0,0)"/>
<path d="" fill="#888989" transform="translate(0,0)"/>
<path d="" fill="#273335" transform="translate(0,0)"/>
<path d="" fill="#88898B" transform="translate(0,0)"/>
<path d="" fill="#1E2021" transform="translate(0,0)"/>
<path d="" fill="#293334" transform="translate(0,0)"/>
<path d="" fill="#3C3D3D" transform="translate(0,0)"/>
<path d="" fill="#8C8C8D" transform="translate(0,0)"/>
<path d="" fill="#2C3435" transform="translate(0,0)"/>
<path d="" fill="#404140" transform="translate(0,0)"/>
<path d="" fill="#252525" transform="translate(0,0)"/>
<path d="" fill="#908F90" transform="translate(0,0)"/>
<path d="" fill="#242827" transform="translate(0,0)"/>
<path d="" fill="#949494" transform="translate(0,0)"/>
<path d="" fill="#2F3132" transform="translate(0,0)"/>
<path d="" fill="#383B3A" transform="translate(0,0)"/>
<path d="" fill="#323332" transform="translate(0,0)"/>
<path d="" fill="#5F5F5F" transform="translate(0,0)"/>
<path d="" fill="#3B3E3F" transform="translate(0,0)"/>
<path d="" fill="#9B9B9B" transform="translate(0,0)"/>
<path d="" fill="#3D3F42" transform="translate(0,0)"/>
<path d="" fill="#9C9C9B" transform="translate(0,0)"/>
<path d="" fill="#626362" transform="translate(0,0)"/>
<path d="" fill="#9D9E9D" transform="translate(0,0)"/>
<path d="" fill="#353636" transform="translate(0,0)"/>
<path d="" fill="#3F4143" transform="translate(0,0)"/>
<path d="" fill="#4E4E4E" transform="translate(0,0)"/>
<path d="" fill="#646565" transform="translate(0,0)"/>
<path d="" fill="#434446" transform="translate(0,0)"/>
<path d="" fill="#393B3B" transform="translate(0,0)"/>
<path d="" fill="#444446" transform="translate(0,0)"/>
<path d="" fill="#535353" transform="translate(0,0)"/>
<path d="" fill="#4D4F4E" transform="translate(0,0)"/>
<path d="" fill="#A3A2A2" transform="translate(0,0)"/>
<path d="" fill="#454849" transform="translate(0,0)"/>
<path d="" fill="#555557" transform="translate(0,0)"/>
<path d="" fill="#616261" transform="translate(0,0)"/>
<path d="" fill="#4F514F" transform="translate(0,0)"/>
<path d="" fill="#484A4B" transform="translate(0,0)"/>
<path d="" fill="#323534" transform="translate(0,0)"/>
<path d="" fill="#525352" transform="translate(0,0)"/>
<path d="" fill="#3E4040" transform="translate(0,0)"/>
<path d="" fill="#4A4C4E" transform="translate(0,0)"/>
<path d="" fill="#5A595A" transform="translate(0,0)"/>
<path d="" fill="#3F4242" transform="translate(0,0)"/>
<path d="" fill="#4B4D4D" transform="translate(0,0)"/>
</svg>
